<svg xmlns="http://www.w3.org/2000/svg" viewBox="0 0 200 200" fill="none">
  <rect x="38" y="34" width="96" height="132" rx="22" fill="#4B20FF"/>
  <rect x="52" y="50" width="22" height="100" rx="8" fill="#FBFBFB"/>
  <rect x="79" y="50" width="22" height="100" rx="8" fill="#FBFBFB"/>
  <rect x="106" y="50" width="22" height="100" rx="8" fill="#FBFBFB"/>
  <rect x="52" y="89" width="22" height="22" rx="6" fill="#D2FF72"/>
  <path d="M90.4 69C84.1 69 79.2 73.4 79.2 79.2C79.2 82.7 81 85.7 84 87.3C80.9 89.1 79 92.3 79 96C79 102.5 84.6 107.3 91.8 107.3C99 107.3 104.6 102.4 104.6 95.8C104.6 91.8 102.5 88.8 99 87.1C101.5 85.4 103 82.7 103 79.4C103 73.4 97.4 69 90.4 69ZM91 78.4C92.8 78.4 94.1 79.5 94.1 81.2C94.1 82.9 92.8 84.1 91 84.1C89.2 84.1 87.9 82.9 87.9 81.2C87.9 79.5 89.2 78.4 91 78.4ZM91.8 91.8C94 91.8 95.7 93.2 95.7 95.2C95.7 97.2 94 98.7 91.8 98.7C89.5 98.7 87.9 97.3 87.9 95.2C87.9 93.2 89.5 91.8 91.8 91.8Z" fill="#4B20FF"/>
  <rect x="106" y="89" width="22" height="22" rx="6" fill="#D2FF72"/>
  <rect x="134" y="76" width="12" height="18" rx="6" fill="#FBFBFB"/>
  <rect x="144" y="56" width="12" height="58" rx="6" fill="#FBFBFB"/>
  <circle cx="150" cy="50" r="12" fill="#D2FF72"/>
</svg>
