<svg xmlns="http://www.w3.org/2000/svg" viewBox="0 0 200 200" fill="none">
  <circle cx="100" cy="100" r="72" fill="#4B20FF"/>
  <circle cx="100" cy="100" r="58" fill="#FBFBFB"/>
  <path d="M100 42A58 58 0 0 1 128.6 49.6L114.3 75.4A28 28 0 0 0 100 72Z" fill="#D2FF72"/>
  <path d="M128.6 49.6A58 58 0 0 1 149.3 70.2L123.8 85.1A28 28 0 0 0 114.3 75.4Z" fill="#4B20FF"/>
  <path d="M149.3 70.2A58 58 0 0 1 157.9 100L128 100A28 28 0 0 0 123.8 85.1Z" fill="#4B20FF"/>
  <path d="M157.9 100A58 58 0 0 1 149.3 129.8L123.8 114.9A28 28 0 0 0 128 100Z" fill="#4B20FF"/>
  <path d="M149.3 129.8A58 58 0 0 1 128.6 150.4L114.3 124.6A28 28 0 0 0 123.8 114.9Z" fill="#4B20FF"/>
  <path d="M128.6 150.4A58 58 0 0 1 100 158L100 128A28 28 0 0 0 114.3 124.6Z" fill="#4B20FF"/>
  <path d="M100 158A58 58 0 0 1 71.4 150.4L85.7 124.6A28 28 0 0 0 100 128Z" fill="#4B20FF"/>
  <path d="M71.4 150.4A58 58 0 0 1 50.7 129.8L76.2 114.9A28 28 0 0 0 85.7 124.6Z" fill="#4B20FF"/>
  <path d="M50.7 129.8A58 58 0 0 1 42.1 100L72 100A28 28 0 0 0 76.2 114.9Z" fill="#4B20FF"/>
  <path d="M42.1 100A58 58 0 0 1 50.7 70.2L76.2 85.1A28 28 0 0 0 72 100Z" fill="#4B20FF"/>
  <path d="M50.7 70.2A58 58 0 0 1 71.4 49.6L85.7 75.4A28 28 0 0 0 76.2 85.1Z" fill="#4B20FF"/>
  <path d="M71.4 49.6A58 58 0 0 1 100 42L100 72A28 28 0 0 0 85.7 75.4Z" fill="#4B20FF"/>
  <circle cx="100" cy="100" r="16" fill="#4B20FF"/>
  <circle cx="154" cy="85" r="8" fill="#FBFBFB"/>
  <circle cx="100" cy="100" r="6" fill="#D2FF72"/>
</svg>
